# Blender 5.1.1
# www.blender.org
mtllib bing.mtl
o 球体
v 0.000000 0.427478 0.000000
v 0.000000 0.403177 -0.080107
v 0.000000 0.363396 -0.119889
v 0.000000 0.311418 -0.141419
v 0.000000 0.283288 -0.144190
v 0.000000 0.255158 -0.141419
v 0.000000 0.203181 -0.119889
v 0.005488 0.424707 -0.027589
v 0.010765 0.416502 -0.054119
v 0.015628 0.403177 -0.078568
v 0.019891 0.385246 -0.099998
v 0.023389 0.363396 -0.117586
v 0.025989 0.338467 -0.130654
v 0.027589 0.311418 -0.138702
v 0.028130 0.283288 -0.141419
v 0.027589 0.255158 -0.138702
v 0.025989 0.228109 -0.130654
v 0.023389 0.203181 -0.117586
v 0.019891 0.181331 -0.099998
v 0.010765 0.424707 -0.025989
v 0.021116 0.416502 -0.050979
v 0.030656 0.403177 -0.074010
v 0.039017 0.385246 -0.094196
v 0.045880 0.363396 -0.110763
v 0.050979 0.338467 -0.123074
v 0.054119 0.311418 -0.130654
v 0.055179 0.283288 -0.133214
v 0.054119 0.255158 -0.130654
v 0.050979 0.228109 -0.123074
v 0.045880 0.203181 -0.110763
v 0.039017 0.181331 -0.094196
v 0.015628 0.424707 -0.023389
v 0.030656 0.416502 -0.045880
v 0.044505 0.403177 -0.066607
v 0.056645 0.385246 -0.084775
v 0.066607 0.363396 -0.099684
v 0.074010 0.338467 -0.110763
v 0.078568 0.311418 -0.117586
v 0.080107 0.283288 -0.119889
v 0.078568 0.255158 -0.117586
v 0.074010 0.228109 -0.110763
v 0.066607 0.203181 -0.099684
v 0.056645 0.181331 -0.084775
v 0.019891 0.424707 -0.019891
v 0.039017 0.416502 -0.039017
v 0.056645 0.403177 -0.056645
v 0.072095 0.385246 -0.072095
v 0.084775 0.363396 -0.084775
v 0.094196 0.338467 -0.094196
v 0.099998 0.311418 -0.099998
v 0.101957 0.283288 -0.101957
v 0.099998 0.255158 -0.099998
v 0.094196 0.228109 -0.094196
v 0.084775 0.203181 -0.084775
v 0.072095 0.181331 -0.072095
v 0.023389 0.424707 -0.015628
v 0.045880 0.416502 -0.030656
v 0.066607 0.403177 -0.044505
v 0.084775 0.385246 -0.056645
v 0.099684 0.363396 -0.066607
v 0.110763 0.338467 -0.074010
v 0.117586 0.311418 -0.078568
v 0.119889 0.283288 -0.080107
v 0.117586 0.255158 -0.078568
v 0.110763 0.228109 -0.074010
v 0.099684 0.203181 -0.066607
v 0.084775 0.181331 -0.056645
v 0.025989 0.424707 -0.010765
v 0.050979 0.416502 -0.021116
v 0.074010 0.403177 -0.030656
v 0.094196 0.385246 -0.039017
v 0.110763 0.363396 -0.045880
v 0.123074 0.338467 -0.050979
v 0.130654 0.311418 -0.054119
v 0.133214 0.283288 -0.055179
v 0.130654 0.255158 -0.054119
v 0.123074 0.228109 -0.050979
v 0.110763 0.203181 -0.045880
v 0.094196 0.181331 -0.039017
v 0.027589 0.424707 -0.005488
v 0.054119 0.416502 -0.010765
v 0.078568 0.403177 -0.015628
v 0.099998 0.385246 -0.019891
v 0.117586 0.363396 -0.023389
v 0.130654 0.338467 -0.025989
v 0.138702 0.311418 -0.027589
v 0.141419 0.283288 -0.028130
v 0.138702 0.255158 -0.027589
v 0.130654 0.228109 -0.025989
v 0.117586 0.203181 -0.023389
v 0.099998 0.181331 -0.019891
v 0.028130 0.424707 0.000000
v 0.055179 0.416502 0.000000
v 0.080107 0.403177 0.000000
v 0.101957 0.385246 -0.000000
v 0.119889 0.363396 0.000000
v 0.133214 0.338467 -0.000000
v 0.141419 0.311418 0.000000
v 0.144190 0.283288 0.000000
v 0.141419 0.255158 0.000000
v 0.133214 0.228109 -0.000000
v 0.119889 0.203181 0.000000
v 0.101957 0.181331 -0.000000
v 0.027589 0.424707 0.005488
v 0.054119 0.416502 0.010765
v 0.078568 0.403177 0.015628
v 0.099998 0.385246 0.019891
v 0.117586 0.363396 0.023389
v 0.130654 0.338467 0.025989
v 0.138702 0.311418 0.027590
v 0.141419 0.283288 0.028130
v 0.138702 0.255158 0.027590
v 0.130654 0.228109 0.025989
v 0.117586 0.203181 0.023389
v 0.099998 0.181331 0.019891
v 0.025989 0.424707 0.010765
v 0.050979 0.416502 0.021116
v 0.074010 0.403177 0.030656
v 0.094196 0.385246 0.039017
v 0.110763 0.363396 0.045880
v 0.123074 0.338467 0.050979
v 0.130654 0.311418 0.054119
v 0.133214 0.283288 0.055179
v 0.130654 0.255158 0.054119
v 0.123074 0.228109 0.050979
v 0.110763 0.203181 0.045880
v 0.094196 0.181331 0.039017
v 0.023389 0.424707 0.015628
v 0.045880 0.416502 0.030656
v 0.066607 0.403177 0.044505
v 0.084775 0.385246 0.056645
v 0.099684 0.363396 0.066607
v 0.110763 0.338467 0.074010
v 0.117586 0.311418 0.078568
v 0.119889 0.283288 0.080107
v 0.117586 0.255158 0.078568
v 0.110763 0.228109 0.074010
v 0.099684 0.203181 0.066607
v 0.084775 0.181331 0.056645
v 0.019891 0.424707 0.019891
v 0.039017 0.416502 0.039017
v 0.056645 0.403177 0.056645
v 0.072095 0.385246 0.072095
v 0.084775 0.363396 0.084775
v 0.094196 0.338467 0.094196
v 0.099998 0.311418 0.099998
v 0.101957 0.283288 0.101957
v 0.099998 0.255158 0.099998
v 0.094196 0.228109 0.094196
v 0.084775 0.203181 0.084775
v 0.072095 0.181331 0.072095
v 0.015628 0.424707 0.023389
v 0.030656 0.416502 0.045880
v 0.044505 0.403177 0.066607
v 0.056645 0.385246 0.084775
v 0.066607 0.363396 0.099684
v 0.074010 0.338467 0.110763
v 0.078568 0.311418 0.117586
v 0.080107 0.283288 0.119889
v 0.078568 0.255158 0.117586
v 0.074010 0.228109 0.110763
v 0.066607 0.203181 0.099684
v 0.056645 0.181331 0.084775
v 0.010765 0.424707 0.025989
v 0.021116 0.416502 0.050979
v 0.030656 0.403177 0.074010
v 0.039017 0.385246 0.094196
v 0.045880 0.363396 0.110763
v 0.050979 0.338467 0.123074
v 0.054119 0.311418 0.130654
v 0.055179 0.283288 0.133214
v 0.054119 0.255158 0.130654
v 0.050979 0.228109 0.123074
v 0.045880 0.203181 0.110763
v 0.039017 0.181331 0.094196
v 0.005488 0.424707 0.027589
v 0.010765 0.416502 0.054119
v 0.015628 0.403177 0.078568
v 0.019891 0.385246 0.099998
v 0.023389 0.363396 0.117586
v 0.025989 0.338467 0.130654
v 0.027589 0.311418 0.138702
v 0.028130 0.283288 0.141419
v 0.027589 0.255158 0.138702
v 0.025989 0.228109 0.130654
v 0.023389 0.203181 0.117586
v 0.019891 0.181331 0.099998
v -0.000000 0.424707 0.028130
v -0.000000 0.416502 0.055179
v -0.000000 0.403177 0.080107
v -0.000000 0.385246 0.101957
v -0.000000 0.363396 0.119889
v 0.000000 0.338467 0.133214
v -0.000000 0.311418 0.141419
v -0.000000 0.283288 0.144190
v -0.000000 0.255158 0.141419
v 0.000000 0.228109 0.133214
v -0.000000 0.203181 0.119889
v -0.000000 0.181331 0.101957
v -0.005488 0.424707 0.027589
v -0.010765 0.416502 0.054119
v -0.015628 0.403177 0.078568
v -0.019891 0.385246 0.099998
v -0.023389 0.363396 0.117586
v -0.025989 0.338467 0.130654
v -0.027590 0.311418 0.138702
v -0.028130 0.283288 0.141419
v -0.027590 0.255158 0.138702
v -0.025989 0.228109 0.130654
v -0.023389 0.203181 0.117586
v -0.019891 0.181331 0.099998
v -0.010765 0.424707 0.025989
v -0.021116 0.416502 0.050979
v -0.030656 0.403177 0.074010
v -0.039017 0.385246 0.094196
v -0.045880 0.363396 0.110763
v -0.050979 0.338467 0.123074
v -0.054119 0.311418 0.130654
v -0.055179 0.283288 0.133214
v -0.054119 0.255158 0.130654
v -0.050979 0.228109 0.123074
v -0.045880 0.203181 0.110763
v -0.039017 0.181331 0.094196
v -0.015628 0.424707 0.023389
v -0.030656 0.416502 0.045880
v -0.044505 0.403177 0.066607
v -0.056645 0.385246 0.084775
v -0.066607 0.363396 0.099684
v -0.074010 0.338467 0.110763
v -0.078568 0.311418 0.117586
v -0.080107 0.283288 0.119889
v -0.078568 0.255158 0.117586
v -0.074010 0.228109 0.110763
v -0.066607 0.203181 0.099684
v -0.056645 0.181331 0.084775
v -0.019891 0.424707 0.019891
v -0.039017 0.416502 0.039017
v -0.056645 0.403177 0.056644
v -0.072095 0.385246 0.072095
v -0.084775 0.363396 0.084774
v -0.094196 0.338467 0.094196
v -0.099998 0.311418 0.099998
v -0.101957 0.283288 0.101957
v -0.099998 0.255158 0.099998
v -0.094196 0.228109 0.094196
v -0.084775 0.203181 0.084774
v -0.072095 0.181331 0.072095
v -0.023389 0.424707 0.015628
v -0.045880 0.416502 0.030656
v -0.066607 0.403177 0.044505
v -0.084775 0.385246 0.056645
v -0.099684 0.363396 0.066607
v -0.110763 0.338467 0.074010
v -0.117586 0.311418 0.078568
v -0.119889 0.283288 0.080107
v -0.117586 0.255158 0.078568
v -0.110763 0.228109 0.074010
v -0.099684 0.203181 0.066607
v -0.084775 0.181331 0.056645
v -0.025989 0.424707 0.010765
v -0.050979 0.416502 0.021116
v -0.074010 0.403177 0.030656
v -0.094196 0.385246 0.039017
v -0.110763 0.363396 0.045880
v -0.123074 0.338467 0.050979
v -0.130654 0.311418 0.054119
v -0.133214 0.283288 0.055179
v -0.130654 0.255158 0.054119
v -0.123074 0.228109 0.050979
v -0.110763 0.203181 0.045880
v -0.094196 0.181331 0.039017
v 0.000000 0.150510 -0.145499
v -0.028385 0.150510 -0.142703
v -0.027589 0.424707 0.005488
v -0.054119 0.416502 0.010765
v -0.078568 0.403177 0.015628
v -0.099998 0.385246 0.019891
v -0.117586 0.363396 0.023389
v -0.130654 0.338467 0.025989
v -0.138702 0.311418 0.027589
v -0.141419 0.283288 0.028130
v -0.138702 0.255158 0.027589
v -0.130654 0.228109 0.025989
v -0.117586 0.203181 0.023389
v -0.099998 0.181331 0.019891
v -0.055680 0.150510 -0.134423
v -0.080835 0.150510 -0.120978
v -0.102883 0.150510 -0.102883
v -0.028130 0.424707 -0.000000
v -0.055179 0.416502 -0.000000
v -0.080107 0.403177 -0.000000
v -0.101957 0.385246 -0.000000
v -0.119889 0.363396 -0.000000
v -0.133214 0.338467 -0.000000
v -0.141419 0.311418 -0.000000
v -0.144190 0.283288 -0.000000
v -0.141419 0.255158 -0.000000
v -0.133214 0.228109 -0.000000
v -0.119889 0.203181 -0.000000
v -0.101957 0.181331 -0.000000
v -0.120978 0.150510 -0.080835
v -0.134423 0.150510 -0.055680
v -0.142703 0.150510 -0.028385
v -0.027589 0.424707 -0.005488
v -0.054119 0.416502 -0.010765
v -0.078568 0.403177 -0.015628
v -0.099998 0.385246 -0.019891
v -0.117586 0.363396 -0.023389
v -0.130654 0.338467 -0.025989
v -0.138702 0.311418 -0.027590
v -0.141419 0.283288 -0.028130
v -0.138702 0.255158 -0.027590
v -0.130654 0.228109 -0.025989
v -0.117586 0.203181 -0.023389
v -0.099998 0.181331 -0.019891
v -0.145499 0.150510 -0.000000
v -0.142703 0.150510 0.028385
v -0.134423 0.150510 0.055680
v -0.025989 0.424707 -0.010765
v -0.050979 0.416502 -0.021116
v -0.074010 0.403177 -0.030656
v -0.094196 0.385246 -0.039017
v -0.110763 0.363396 -0.045880
v -0.123074 0.338467 -0.050979
v -0.130654 0.311418 -0.054119
v -0.133214 0.283288 -0.055179
v -0.130654 0.255158 -0.054119
v -0.123074 0.228109 -0.050979
v -0.110763 0.203181 -0.045880
v -0.094196 0.181331 -0.039017
v -0.120978 0.150510 0.080835
v -0.102883 0.150510 0.102883
v -0.080835 0.150510 0.120978
v -0.023389 0.424707 -0.015628
v -0.045880 0.416502 -0.030656
v -0.066607 0.403177 -0.044505
v -0.084775 0.385246 -0.056645
v -0.099684 0.363396 -0.066607
v -0.110763 0.338467 -0.074010
v -0.117586 0.311418 -0.078568
v -0.119889 0.283288 -0.080107
v -0.117586 0.255158 -0.078568
v -0.110763 0.228109 -0.074010
v -0.099684 0.203181 -0.066607
v -0.084775 0.181331 -0.056645
v -0.055680 0.150510 0.134423
v -0.028385 0.150510 0.142703
v -0.000000 0.150510 0.145499
v -0.019891 0.424707 -0.019891
v -0.039017 0.416502 -0.039017
v -0.056644 0.403177 -0.056645
v -0.072095 0.385246 -0.072095
v -0.084774 0.363396 -0.084775
v -0.094196 0.338467 -0.094196
v -0.099998 0.311418 -0.099998
v -0.101957 0.283288 -0.101957
v -0.099998 0.255158 -0.099998
v -0.094196 0.228109 -0.094196
v -0.084774 0.203181 -0.084775
v -0.072095 0.181331 -0.072095
v 0.028385 0.150510 0.142703
v 0.055680 0.150510 0.134423
v 0.080835 0.150510 0.120978
v -0.015628 0.424707 -0.023389
v -0.030656 0.416502 -0.045880
v -0.044505 0.403177 -0.066607
v -0.056645 0.385246 -0.084775
v -0.066607 0.363396 -0.099684
v -0.074010 0.338467 -0.110763
v -0.078568 0.311418 -0.117586
v -0.080107 0.283288 -0.119889
v -0.078568 0.255158 -0.117586
v -0.074010 0.228109 -0.110763
v -0.066607 0.203181 -0.099684
v -0.056645 0.181331 -0.084775
v 0.102883 0.150510 0.102883
v 0.120978 0.150510 0.080835
v 0.134423 0.150510 0.055680
v -0.010765 0.424707 -0.025989
v -0.021116 0.416502 -0.050979
v -0.030656 0.403177 -0.074010
v -0.039017 0.385246 -0.094196
v -0.045880 0.363396 -0.110763
v -0.050979 0.338467 -0.123074
v -0.054119 0.311418 -0.130654
v -0.055179 0.283288 -0.133214
v -0.054119 0.255158 -0.130654
v -0.050979 0.228109 -0.123074
v -0.045880 0.203181 -0.110763
v -0.039017 0.181331 -0.094196
v 0.142703 0.150510 0.028385
v 0.145499 0.150510 -0.000000
v 0.142703 0.150510 -0.028385
v -0.005488 0.424707 -0.027589
v -0.010765 0.416502 -0.054119
v -0.015628 0.403177 -0.078568
v -0.019891 0.385246 -0.099998
v -0.023389 0.363396 -0.117586
v -0.025989 0.338467 -0.130654
v -0.027589 0.311418 -0.138702
v -0.028130 0.283288 -0.141419
v -0.027589 0.255158 -0.138702
v -0.025989 0.228109 -0.130654
v -0.023389 0.203181 -0.117586
v -0.019891 0.181331 -0.099998
v 0.134423 0.150510 -0.055680
v 0.120978 0.150510 -0.080835
v 0.102883 0.150510 -0.102883
v 0.000000 0.424707 -0.028130
v 0.000000 0.416502 -0.055179
v 0.000000 0.385246 -0.101957
v 0.000000 0.338467 -0.133214
v 0.000000 0.228109 -0.133214
v 0.000000 0.181331 -0.101957
v 0.080835 0.150510 -0.120978
v 0.055680 0.150510 -0.134423
v 0.028385 0.150510 -0.142703
v 0.000000 0.125806 -0.145499
v -0.028385 0.125806 -0.142703
v -0.055680 0.125806 -0.134423
v -0.080835 0.125806 -0.120978
v -0.102883 0.125806 -0.102883
v -0.120978 0.125806 -0.080835
v -0.134423 0.125806 -0.055680
v -0.142703 0.125806 -0.028385
v -0.145499 0.125806 -0.000000
v -0.142703 0.125806 0.028385
v -0.134423 0.125806 0.055680
v -0.120978 0.125806 0.080835
v -0.102883 0.125806 0.102883
v -0.080835 0.125806 0.120978
v -0.055680 0.125806 0.134423
v -0.028385 0.125806 0.142703
v -0.000000 0.125806 0.145499
v 0.028385 0.125806 0.142703
v 0.055680 0.125806 0.134423
v 0.080835 0.125806 0.120978
v 0.102883 0.125806 0.102883
v 0.120978 0.125806 0.080835
v 0.134423 0.125806 0.055680
v 0.142703 0.125806 0.028385
v 0.145499 0.125806 -0.000000
v 0.142703 0.125806 -0.028385
v 0.134423 0.125806 -0.055680
v 0.120978 0.125806 -0.080835
v 0.102883 0.125806 -0.102883
v 0.080835 0.125806 -0.120978
v 0.055680 0.125806 -0.134423
v 0.028385 0.125806 -0.142703
v 0.000000 0.126197 -0.102535
v -0.020004 0.126197 -0.100564
v -0.039238 0.126197 -0.094730
v -0.056965 0.126197 -0.085254
v -0.072503 0.126197 -0.072503
v -0.085254 0.126197 -0.056965
v -0.094730 0.126197 -0.039238
v -0.100564 0.126197 -0.020004
v -0.102535 0.126197 -0.000000
v -0.100564 0.126197 0.020004
v -0.094730 0.126197 0.039238
v -0.085254 0.126197 0.056965
v -0.072503 0.126197 0.072503
v -0.056965 0.126197 0.085254
v -0.039238 0.126197 0.094730
v -0.020004 0.126197 0.100564
v -0.000000 0.126197 0.102535
v 0.020004 0.126197 0.100564
v 0.039238 0.126197 0.094730
v 0.056965 0.126197 0.085254
v 0.072503 0.126197 0.072503
v 0.085254 0.126197 0.056965
v 0.094730 0.126197 0.039238
v 0.100564 0.126197 0.020004
v 0.102535 0.126197 0.000000
v 0.100564 0.126197 -0.020004
v 0.094730 0.126197 -0.039238
v 0.085254 0.126197 -0.056965
v 0.072503 0.126197 -0.072503
v 0.056965 0.126197 -0.085254
v 0.039238 0.126197 -0.094730
v 0.020004 0.126197 -0.100564
v 0.000000 -0.150671 -0.102535
v -0.020003 -0.150671 -0.100564
v -0.039238 -0.150671 -0.094730
v -0.056965 -0.150671 -0.085254
v -0.072503 -0.150671 -0.072503
v -0.085254 -0.150671 -0.056965
v -0.094730 -0.150671 -0.039238
v -0.100564 -0.150671 -0.020004
v -0.102535 -0.150671 0.000000
v -0.100564 -0.150671 0.020004
v -0.094730 -0.150671 0.039238
v -0.085254 -0.150671 0.056965
v -0.072503 -0.150671 0.072503
v -0.056965 -0.150671 0.085254
v -0.039238 -0.150671 0.094730
v -0.020004 -0.150671 0.100564
v 0.000000 -0.150671 0.102535
v 0.020004 -0.150671 0.100565
v 0.039238 -0.150671 0.094730
v 0.056965 -0.150671 0.085254
v 0.072503 -0.150671 0.072503
v 0.085254 -0.150671 0.056965
v 0.094730 -0.150671 0.039238
v 0.100564 -0.150671 0.020004
v 0.102535 -0.150671 0.000000
v 0.100564 -0.150671 -0.020004
v 0.094730 -0.150671 -0.039238
v 0.085254 -0.150671 -0.056965
v 0.072503 -0.150671 -0.072503
v 0.056965 -0.150671 -0.085254
v 0.039238 -0.150671 -0.094730
v 0.020004 -0.150671 -0.100564
v 0.000000 -0.176644 -0.168874
v -0.032946 -0.176644 -0.165629
v -0.064625 -0.176644 -0.156019
v -0.093821 -0.176644 -0.140413
v -0.119412 -0.176644 -0.119412
v -0.140413 -0.176644 -0.093821
v -0.156019 -0.176644 -0.064625
v -0.165629 -0.176644 -0.032946
v -0.168874 -0.176644 -0.000000
v -0.165629 -0.176644 0.032946
v -0.156019 -0.176644 0.064625
v -0.140413 -0.176644 0.093821
v -0.119412 -0.176644 0.119412
v -0.093821 -0.176644 0.140413
v -0.064625 -0.176644 0.156019
v -0.032946 -0.176644 0.165629
v -0.000000 -0.176644 0.168874
v 0.032946 -0.176644 0.165629
v 0.064625 -0.176644 0.156019
v 0.093821 -0.176644 0.140413
v 0.119412 -0.176644 0.119412
v 0.140413 -0.176644 0.093821
v 0.156019 -0.176644 0.064625
v 0.165629 -0.176644 0.032946
v 0.168874 -0.176644 -0.000000
v 0.165629 -0.176644 -0.032946
v 0.156019 -0.176644 -0.064625
v 0.140413 -0.176644 -0.093821
v 0.119412 -0.176644 -0.119412
v 0.093821 -0.176644 -0.140413
v 0.064625 -0.176644 -0.156019
v 0.032946 -0.176644 -0.165629
v 0.000000 -0.228583 -0.168874
v -0.032946 -0.228583 -0.165629
v -0.064625 -0.228583 -0.156019
v -0.093821 -0.228583 -0.140413
v -0.119412 -0.228583 -0.119412
v -0.140413 -0.228583 -0.093821
v -0.156019 -0.228583 -0.064625
v -0.165629 -0.228583 -0.032946
v -0.168874 -0.228583 -0.000000
v -0.165629 -0.228583 0.032946
v -0.156019 -0.228583 0.064625
v -0.140413 -0.228583 0.093821
v -0.119412 -0.228583 0.119412
v -0.093821 -0.228583 0.140413
v -0.064625 -0.228583 0.156019
v -0.032946 -0.228583 0.165629
v -0.000000 -0.228583 0.168874
v 0.032946 -0.228583 0.165629
v 0.064625 -0.228583 0.156019
v 0.093821 -0.228583 0.140413
v 0.119412 -0.228583 0.119412
v 0.140413 -0.228583 0.093821
v 0.156019 -0.228583 0.064625
v 0.165629 -0.228583 0.032946
v 0.168874 -0.228583 -0.000000
v 0.165629 -0.228583 -0.032946
v 0.156019 -0.228583 -0.064625
v 0.140413 -0.228583 -0.093821
v 0.119412 -0.228583 -0.119412
v 0.093821 -0.228583 -0.140413
v 0.064625 -0.228583 -0.156019
v 0.032946 -0.228583 -0.165629
v 0.000000 -0.228408 -0.000000
vn 0.0759 -0.6326 -0.7708
vn 0.0759 0.6326 -0.7708
vn 0.0865 0.4696 -0.8786
vn 0.0938 0.2890 -0.9527
vn 0.0975 0.0975 -0.9904
vn 0.0097 0.9951 -0.0980
vn 0.0975 -0.0975 -0.9904
vn 0.0286 0.9565 -0.2902
vn 0.0938 -0.2890 -0.9527
vn 0.0464 0.8810 -0.4709
vn 0.0865 -0.4696 -0.8786
vn 0.0624 0.7715 -0.6332
vn 0.2563 -0.4696 -0.8448
vn 0.1847 0.7715 -0.6088
vn 0.2248 -0.6326 -0.7412
vn 0.2248 0.6326 -0.7412
vn 0.2563 0.4696 -0.8448
vn 0.2779 0.2890 -0.9161
vn 0.2889 0.0976 -0.9524
vn 0.0286 0.9951 -0.0942
vn 0.2889 -0.0976 -0.9524
vn 0.0846 0.9565 -0.2790
vn 0.2779 -0.2890 -0.9161
vn 0.1374 0.8810 -0.4528
vn 0.4691 0.0975 -0.8777
vn 0.0464 0.9951 -0.0869
vn 0.4691 -0.0975 -0.8777
vn 0.1374 0.9565 -0.2571
vn 0.4513 -0.2890 -0.8443
vn 0.2230 0.8810 -0.4173
vn 0.4162 -0.4696 -0.7786
vn 0.2999 0.7715 -0.5611
vn 0.3651 -0.6326 -0.6831
vn 0.3651 0.6326 -0.6831
vn 0.4162 0.4696 -0.7786
vn 0.4513 0.2890 -0.8443
vn 0.4036 0.7715 -0.4918
vn 0.4913 -0.6326 -0.5987
vn 0.4913 0.6326 -0.5987
vn 0.5601 0.4696 -0.6825
vn 0.6073 0.2890 -0.7400
vn 0.6314 0.0975 -0.7693
vn 0.0625 0.9951 -0.0761
vn 0.6314 -0.0975 -0.7693
vn 0.1850 0.9565 -0.2254
vn 0.6073 -0.2890 -0.7400
vn 0.3002 0.8810 -0.3658
vn 0.5601 -0.4696 -0.6825
vn 0.7693 0.0975 -0.6314
vn 0.0761 0.9951 -0.0625
vn 0.7693 -0.0975 -0.6314
vn 0.2254 0.9565 -0.1850
vn 0.7400 -0.2890 -0.6073
vn 0.3658 0.8810 -0.3002
vn 0.6825 -0.4696 -0.5601
vn 0.4918 0.7715 -0.4036
vn 0.5987 -0.6326 -0.4913
vn 0.5987 0.6326 -0.4913
vn 0.6825 0.4696 -0.5601
vn 0.7400 0.2890 -0.6073
vn 0.6831 -0.6326 -0.3651
vn 0.6831 0.6326 -0.3651
vn 0.7786 0.4696 -0.4162
vn 0.8443 0.2890 -0.4513
vn 0.8777 0.0975 -0.4691
vn 0.0869 0.9951 -0.0464
vn 0.8777 -0.0975 -0.4691
vn 0.2571 0.9565 -0.1374
vn 0.8443 -0.2890 -0.4513
vn 0.4173 0.8810 -0.2230
vn 0.7786 -0.4696 -0.4162
vn 0.5611 0.7715 -0.2999
vn 0.9524 -0.0975 -0.2889
vn 0.2790 0.9565 -0.0846
vn 0.9161 -0.2890 -0.2779
vn 0.4528 0.8810 -0.1374
vn 0.8448 -0.4696 -0.2563
vn 0.6088 0.7715 -0.1847
vn 0.7412 -0.6326 -0.2248
vn 0.7412 0.6326 -0.2248
vn 0.8448 0.4696 -0.2563
vn 0.9161 0.2890 -0.2779
vn 0.9524 0.0975 -0.2889
vn 0.0942 0.9951 -0.0286
vn 0.8786 0.4696 -0.0865
vn 0.9527 0.2890 -0.0938
vn 0.9904 0.0975 -0.0975
vn 0.0980 0.9951 -0.0097
vn 0.9904 -0.0975 -0.0975
vn 0.2902 0.9565 -0.0286
vn 0.9527 -0.2890 -0.0938
vn 0.4709 0.8810 -0.0464
vn 0.8786 -0.4696 -0.0865
vn 0.6332 0.7715 -0.0624
vn 0.7708 -0.6326 -0.0759
vn 0.7708 0.6326 -0.0759
vn 0.2902 0.9565 0.0286
vn 0.9527 -0.2890 0.0938
vn 0.4709 0.8810 0.0464
vn 0.8786 -0.4696 0.0865
vn 0.6332 0.7715 0.0624
vn 0.7708 -0.6326 0.0759
vn 0.7708 0.6326 0.0759
vn 0.8786 0.4696 0.0865
vn 0.9527 0.2890 0.0938
vn 0.9904 0.0975 0.0976
vn 0.0980 0.9951 0.0097
vn 0.9904 -0.0975 0.0976
vn 0.8448 0.4696 0.2563
vn 0.9161 0.2890 0.2779
vn 0.9524 0.0975 0.2889
vn 0.0942 0.9951 0.0286
vn 0.9524 -0.0975 0.2889
vn 0.2790 0.9565 0.0846
vn 0.9161 -0.2890 0.2779
vn 0.4528 0.8810 0.1374
vn 0.8448 -0.4696 0.2563
vn 0.6088 0.7715 0.1847
vn 0.7412 -0.6326 0.2248
vn 0.7412 0.6326 0.2248
vn 0.8443 -0.2890 0.4513
vn 0.4173 0.8810 0.2230
vn 0.7786 -0.4696 0.4162
vn 0.5611 0.7715 0.2999
vn 0.6831 -0.6326 0.3651
vn 0.6831 0.6326 0.3651
vn 0.7786 0.4696 0.4162
vn 0.8443 0.2890 0.4513
vn 0.8777 0.0975 0.4691
vn 0.0869 0.9951 0.0464
vn 0.8777 -0.0975 0.4691
vn 0.2571 0.9565 0.1374
vn 0.7400 0.2890 0.6073
vn 0.7693 0.0975 0.6314
vn 0.0761 0.9951 0.0625
vn 0.7693 -0.0975 0.6314
vn 0.2254 0.9565 0.1850
vn 0.7400 -0.2890 0.6073
vn 0.3658 0.8810 0.3002
vn 0.6825 -0.4696 0.5601
vn 0.4918 0.7715 0.4036
vn 0.5987 -0.6326 0.4913
vn 0.5987 0.6326 0.4913
vn 0.6825 0.4696 0.5601
vn 0.3002 0.8810 0.3658
vn 0.5601 -0.4696 0.6825
vn 0.4036 0.7715 0.4918
vn 0.4913 -0.6326 0.5987
vn 0.4913 0.6326 0.5987
vn 0.5601 0.4696 0.6825
vn 0.6073 0.2890 0.7400
vn 0.6314 0.0975 0.7693
vn 0.0625 0.9951 0.0761
vn 0.6314 -0.0975 0.7693
vn 0.1850 0.9565 0.2254
vn 0.6073 -0.2890 0.7400
vn 0.4513 0.2890 0.8443
vn 0.4691 0.0975 0.8777
vn 0.0464 0.9951 0.0869
vn 0.4691 -0.0975 0.8777
vn 0.1374 0.9565 0.2571
vn 0.4513 -0.2890 0.8443
vn 0.2230 0.8810 0.4173
vn 0.4162 -0.4696 0.7786
vn 0.2999 0.7715 0.5611
vn 0.3651 -0.6326 0.6831
vn 0.3651 0.6326 0.6831
vn 0.4162 0.4696 0.7786
vn 0.2563 -0.4696 0.8448
vn 0.1847 0.7715 0.6088
vn 0.2248 -0.6326 0.7412
vn 0.2248 0.6326 0.7412
vn 0.2563 0.4696 0.8448
vn 0.2779 0.2890 0.9161
vn 0.2889 0.0975 0.9524
vn 0.0286 0.9951 0.0942
vn 0.2889 -0.0975 0.9524
vn 0.0846 0.9565 0.2790
vn 0.2779 -0.2890 0.9161
vn 0.1374 0.8810 0.4528
vn 0.0975 0.0975 0.9904
vn 0.0097 0.9951 0.0980
vn 0.0975 -0.0975 0.9904
vn 0.0286 0.9565 0.2902
vn 0.0938 -0.2890 0.9527
vn 0.0464 0.8810 0.4709
vn 0.0865 -0.4696 0.8786
vn 0.0624 0.7715 0.6332
vn 0.0759 -0.6326 0.7708
vn 0.0759 0.6326 0.7708
vn 0.0865 0.4696 0.8786
vn 0.0938 0.2890 0.9527
vn -0.0759 -0.6326 0.7708
vn -0.0759 0.6326 0.7708
vn -0.0865 0.4696 0.8786
vn -0.0938 0.2890 0.9527
vn -0.0976 0.0975 0.9904
vn -0.0097 0.9951 0.0980
vn -0.0976 -0.0975 0.9904
vn -0.0286 0.9565 0.2902
vn -0.0938 -0.2890 0.9527
vn -0.0464 0.8810 0.4709
vn -0.0865 -0.4696 0.8786
vn -0.0624 0.7715 0.6332
vn -0.0286 0.9951 0.0942
vn -0.2889 -0.0975 0.9524
vn -0.0846 0.9565 0.2790
vn -0.2779 -0.2890 0.9161
vn -0.1374 0.8810 0.4528
vn -0.2563 -0.4696 0.8448
vn -0.1847 0.7715 0.6088
vn -0.2248 -0.6326 0.7412
vn -0.2248 0.6326 0.7412
vn -0.2563 0.4696 0.8448
vn -0.2779 0.2890 0.9161
vn -0.2889 0.0975 0.9524
vn -0.3651 0.6326 0.6831
vn -0.4162 0.4696 0.7786
vn -0.4513 0.2890 0.8443
vn -0.4691 0.0975 0.8777
vn -0.0464 0.9951 0.0869
vn -0.4691 -0.0975 0.8777
vn -0.1374 0.9565 0.2571
vn -0.4513 -0.2890 0.8443
vn -0.2230 0.8810 0.4173
vn -0.4162 -0.4696 0.7786
vn -0.2999 0.7715 0.5611
vn -0.3651 -0.6326 0.6831
vn -0.6314 -0.0975 0.7693
vn -0.1850 0.9565 0.2254
vn -0.6073 -0.2890 0.7400
vn -0.3002 0.8810 0.3658
vn -0.5601 -0.4696 0.6825
vn -0.4036 0.7715 0.4918
vn -0.4913 -0.6326 0.5987
vn -0.4913 0.6326 0.5987
vn -0.5601 0.4696 0.6825
vn -0.6073 0.2890 0.7400
vn -0.6314 0.0975 0.7693
vn -0.0625 0.9951 0.0761
vn -0.6825 0.4696 0.5601
vn -0.7400 0.2890 0.6073
vn -0.7693 0.0975 0.6314
vn -0.0761 0.9951 0.0625
vn -0.7693 -0.0975 0.6314
vn -0.2254 0.9565 0.1850
vn -0.7400 -0.2890 0.6073
vn -0.3658 0.8810 0.3002
vn -0.6825 -0.4696 0.5601
vn -0.4918 0.7715 0.4036
vn -0.5987 -0.6326 0.4913
vn -0.5987 0.6326 0.4913
vn -0.2571 0.9565 0.1374
vn -0.8443 -0.2890 0.4513
vn -0.4173 0.8810 0.2230
vn -0.7786 -0.4696 0.4162
vn -0.5611 0.7715 0.2999
vn -0.6831 -0.6326 0.3651
vn -0.6831 0.6326 0.3651
vn -0.7786 0.4696 0.4162
vn -0.5112 0.8149 0.2732
vn -0.8443 0.2890 0.4513
vn -0.5768 0.8149 -0.0568
vn -0.8777 0.0975 0.4691
vn -0.0869 0.9951 0.0464
vn -0.8777 -0.0975 0.4691
vn -0.8448 0.4696 0.2563
vn 0.5768 0.8149 0.0568
vn -0.9161 0.2890 0.2779
vn 0.5112 0.8149 -0.2732
vn -0.9524 0.0975 0.2889
vn -0.0942 0.9951 0.0286
vn -0.9524 -0.0975 0.2889
vn -0.2790 0.9565 0.0846
vn -0.9161 -0.2890 0.2779
vn -0.4528 0.8810 0.1374
vn -0.8448 -0.4696 0.2563
vn -0.6088 0.7715 0.1847
vn -0.7412 -0.6326 0.2248
vn -0.7412 0.6326 0.2248
vn 0.0568 0.8149 -0.5768
vn -0.9527 -0.2890 0.0938
vn -0.4709 0.8810 0.0464
vn -0.8786 -0.4696 0.0865
vn -0.6332 0.7715 0.0624
vn -0.7708 -0.6326 0.0759
vn -0.7708 0.6326 0.0759
vn 0.4480 0.8149 0.3677
vn -0.8786 0.4696 0.0865
vn -0.2732 0.8149 -0.5112
vn -0.9527 0.2890 0.0938
vn -0.3677 0.8149 0.4480
vn -0.9904 0.0975 0.0975
vn -0.0980 0.9951 0.0097
vn -0.9904 -0.0975 0.0975
vn -0.2902 0.9565 0.0286
vn -0.5547 0.8149 0.1683
vn -0.9527 0.2890 -0.0938
vn 0.3677 0.8149 -0.4480
vn -0.9904 0.0975 -0.0976
vn -0.0980 0.9951 -0.0097
vn -0.9904 -0.0975 -0.0976
vn -0.2902 0.9565 -0.0286
vn -0.9527 -0.2890 -0.0938
vn -0.4709 0.8810 -0.0464
vn -0.8786 -0.4696 -0.0865
vn -0.6332 0.7715 -0.0624
vn -0.7708 -0.6326 -0.0759
vn -0.7708 0.6326 -0.0759
vn 0.5547 0.8149 -0.1683
vn -0.8786 0.4696 -0.0865
vn -0.8448 -0.4696 -0.2563
vn -0.6088 0.7715 -0.1847
vn -0.7412 -0.6326 -0.2248
vn -0.7412 0.6326 -0.2248
vn -0.0568 0.8149 0.5768
vn -0.8448 0.4696 -0.2563
vn 0.1683 0.8149 0.5547
vn -0.9161 0.2890 -0.2779
vn -0.1683 0.8149 -0.5547
vn -0.9524 0.0975 -0.2889
vn -0.0942 0.9951 -0.0286
vn -0.9524 -0.0975 -0.2889
vn -0.2790 0.9565 -0.0846
vn -0.9161 -0.2890 -0.2779
vn -0.4528 0.8810 -0.1374
vn -0.0568 0.8149 -0.5768
vn -0.8777 0.0975 -0.4691
vn -0.0869 0.9951 -0.0464
vn -0.8777 -0.0975 -0.4691
vn -0.2571 0.9565 -0.1374
vn -0.8443 -0.2890 -0.4513
vn -0.4173 0.8810 -0.2231
vn -0.7786 -0.4696 -0.4162
vn -0.5611 0.7715 -0.2999
vn -0.6831 -0.6326 -0.3651
vn -0.6831 0.6326 -0.3651
vn -0.4480 0.8149 -0.3677
vn -0.7786 0.4696 -0.4162
vn 0.5547 0.8149 0.1683
vn -0.8443 0.2890 -0.4513
vn -0.4918 0.7715 -0.4036
vn -0.5987 -0.6326 -0.4913
vn -0.5987 0.6326 -0.4913
vn -0.1683 0.8149 0.5547
vn -0.6825 0.4696 -0.5601
vn 0.1683 0.8149 -0.5547
vn -0.7400 0.2890 -0.6073
vn 0.4480 0.8149 -0.3677
vn -0.7693 0.0975 -0.6314
vn -0.0761 0.9951 -0.0625
vn -0.7693 -0.0975 -0.6314
vn -0.2254 0.9565 -0.1850
vn -0.7400 -0.2890 -0.6073
vn -0.3658 0.8810 -0.3002
vn -0.6825 -0.4696 -0.5601
vn -0.6314 0.0975 -0.7693
vn -0.0625 0.9951 -0.0761
vn -0.6314 -0.0975 -0.7693
vn -0.1850 0.9565 -0.2254
vn -0.6073 -0.2890 -0.7400
vn -0.3002 0.8810 -0.3658
vn -0.5601 -0.4696 -0.6825
vn -0.4036 0.7715 -0.4918
vn -0.4913 -0.6326 -0.5987
vn -0.4913 0.6326 -0.5987
vn -0.5547 0.8149 -0.1683
vn -0.5601 0.4696 -0.6825
vn -0.4480 0.8149 0.3677
vn -0.6073 0.2890 -0.7400
vn 0.3677 0.8149 0.4480
vn -0.3651 -0.6326 -0.6831
vn -0.3651 0.6326 -0.6831
vn -0.3677 0.8149 -0.4480
vn -0.4162 0.4696 -0.7786
vn 0.0568 0.8149 0.5768
vn -0.4513 0.2890 -0.8443
vn -0.5768 0.8149 0.0568
vn -0.4691 0.0975 -0.8777
vn -0.0464 0.9951 -0.0869
vn -0.4691 -0.0975 -0.8777
vn -0.1374 0.9565 -0.2571
vn -0.4513 -0.2890 -0.8443
vn -0.2230 0.8810 -0.4173
vn -0.4162 -0.4696 -0.7786
vn -0.2999 0.7715 -0.5611
vn -0.0286 0.9951 -0.0942
vn -0.2889 -0.0975 -0.9524
vn -0.0846 0.9565 -0.2790
vn -0.2779 -0.2890 -0.9161
vn -0.1374 0.8810 -0.4528
vn -0.2563 -0.4696 -0.8448
vn -0.1847 0.7715 -0.6088
vn -0.2248 -0.6326 -0.7412
vn -0.2248 0.6326 -0.7412
vn 0.5768 0.8149 -0.0568
vn -0.2563 0.4696 -0.8448
vn -0.2732 0.8149 0.5112
vn -0.2779 0.2890 -0.9161
vn 0.2732 0.8149 -0.5112
vn -0.2889 0.0975 -0.9524
vn -0.0759 0.6326 -0.7708
vn 0.5112 0.8149 0.2732
vn -0.0865 0.4696 -0.8786
vn -0.5112 0.8149 -0.2732
vn -0.0938 0.2890 -0.9527
vn 0.2732 0.8149 0.5112
vn -0.0976 0.0975 -0.9904
vn -0.0097 0.9951 -0.0980
vn -0.0976 -0.0975 -0.9904
vn -0.0286 0.9565 -0.2902
vn -0.0938 -0.2890 -0.9527
vn -0.0464 0.8810 -0.4709
vn -0.0865 -0.4696 -0.8786
vn -0.0624 0.7715 -0.6332
vn -0.0759 -0.6326 -0.7708
vn -0.4714 -0.0000 -0.8819
vn 0.8819 -0.0000 0.4714
vn -0.6344 -0.0000 0.7730
vn -0.6344 -0.0000 -0.7730
vn 0.6344 -0.0000 -0.7730
vn 0.0980 -0.0000 -0.9952
vn 0.4714 -0.0000 -0.8819
vn -0.2903 -0.0000 -0.9569
vn -0.2903 -0.0000 0.9569
vn -0.7730 -0.0000 -0.6344
vn 0.2903 -0.0000 -0.9569
vn -0.8819 -0.0000 -0.4714
vn -0.0980 -0.0000 0.9952
vn -0.9952 -0.0000 -0.0980
vn -0.8819 -0.0000 0.4714
vn 0.9952 -0.0000 -0.0980
vn -0.7730 -0.0000 0.6344
vn -0.9569 -0.0000 -0.2903
vn -0.4714 -0.0000 0.8819
vn 0.0980 -0.0000 0.9952
vn 0.2903 -0.0000 0.9569
vn 0.8819 -0.0000 -0.4714
vn -0.9952 -0.0000 0.0980
vn 0.6344 -0.0000 0.7730
vn 0.9569 -0.0000 0.2903
vn 0.7730 -0.0000 -0.6344
vn 0.4714 -0.0000 0.8819
vn 0.9952 -0.0000 0.0980
vn -0.0980 -0.0000 -0.9952
vn -0.9569 -0.0000 0.2903
vn 0.9569 -0.0000 -0.2903
vn 0.7730 -0.0000 0.6344
vn 0.0087 -1.0000 0.0026
vn -0.0058 -1.0000 0.0071
vn 0.0091 -1.0000 -0.0009
vn -0.0009 -1.0000 0.0091
vn -0.0043 -1.0000 0.0080
vn -0.0009 -1.0000 -0.0091
vn 0.0026 -1.0000 0.0087
vn -0.0026 -1.0000 0.0087
vn -0.0026 -1.0000 -0.0087
vn 0.0071 -1.0000 0.0058
vn -0.0091 -1.0000 0.0009
vn -0.0058 -1.0000 -0.0071
vn 0.0080 -1.0000 0.0043
vn -0.0080 -1.0000 0.0043
vn 0.0058 -1.0000 -0.0071
vn 0.0091 -1.0000 0.0009
vn -0.0071 -1.0000 0.0058
vn 0.0026 -1.0000 -0.0087
vn 0.0009 -1.0000 0.0091
vn 0.0009 -1.0000 -0.0091
vn 0.0043 -1.0000 0.0080
vn -0.0087 -1.0000 -0.0026
vn 0.0058 -1.0000 0.0071
vn -0.0091 -1.0000 -0.0009
vn 0.0080 -1.0000 -0.0043
vn -0.0087 -1.0000 0.0026
vn 0.0071 -1.0000 -0.0058
vn -0.0080 -1.0000 -0.0043
vn 0.0043 -1.0000 -0.0080
vn -0.0043 -1.0000 -0.0080
vn 0.0087 -1.0000 -0.0026
vn -0.0071 -1.0000 -0.0058
vn 0.1063 0.9306 0.3503
vn -0.2830 0.9306 -0.2323
vn 0.3643 0.9306 -0.0359
vn 0.2323 0.9306 0.2830
vn -0.3229 0.9306 -0.1726
vn 0.3229 0.9306 -0.1726
vn -0.2323 0.9306 0.2830
vn -0.3643 0.9306 -0.0359
vn 0.2830 0.9306 -0.2323
vn -0.1063 0.9306 0.3503
vn -0.0359 0.9306 -0.3643
vn -0.0359 0.9306 0.3643
vn -0.1726 0.9306 -0.3229
vn 0.3503 0.9306 0.1063
vn -0.2323 0.9306 -0.2830
vn 0.3643 0.9306 0.0359
vn -0.3229 0.9306 0.1726
vn 0.3503 0.9306 -0.1063
vn -0.2830 0.9306 0.2323
vn 0.3229 0.9306 0.1726
vn -0.1726 0.9306 0.3229
vn 0.1726 0.9306 0.3229
vn -0.3503 0.9306 0.1063
vn 0.2830 0.9306 0.2323
vn -0.3503 0.9306 -0.1063
vn 0.2323 0.9306 -0.2830
vn -0.3643 0.9306 0.0359
vn 0.0359 0.9306 -0.3643
vn 0.1726 0.9306 -0.3229
vn 0.0359 0.9306 0.3643
vn -0.1063 0.9306 -0.3503
vn 0.1063 0.9306 -0.3503
vn 0.0009 -1.0000 0.0005
vn -0.0009 -1.0000 0.0005
vn 0.0007 -1.0000 -0.0008
vn 0.0010 -1.0000 0.0001
vn -0.0008 -1.0000 0.0007
vn 0.0003 -1.0000 -0.0010
vn 0.0001 -1.0000 0.0010
vn 0.0001 -1.0000 -0.0010
vn 0.0005 -1.0000 0.0009
vn -0.0010 -1.0000 -0.0003
vn 0.0007 -1.0000 0.0008
vn -0.0010 -1.0000 -0.0001
vn 0.0009 -1.0000 -0.0005
vn -0.0010 -1.0000 0.0003
vn 0.0008 -1.0000 -0.0007
vn -0.0009 -1.0000 -0.0005
vn 0.0005 -1.0000 -0.0009
vn -0.0005 -1.0000 -0.0009
vn 0.0010 -1.0000 -0.0003
vn -0.0008 -1.0000 -0.0007
vn 0.0010 -1.0000 0.0003
vn -0.0007 -1.0000 0.0008
vn 0.0010 -1.0000 -0.0001
vn -0.0001 -1.0000 0.0010
vn -0.0005 -1.0000 0.0009
vn -0.0001 -1.0000 -0.0010
vn 0.0003 -1.0000 0.0010
vn -0.0003 -1.0000 0.0010
vn -0.0003 -1.0000 -0.0010
vn 0.0008 -1.0000 0.0007
vn -0.0010 -1.0000 0.0001
vn -0.0007 -1.0000 -0.0008
vt 0.750000 0.250000
vt 0.750000 0.312500
vt 0.718750 0.312500
vt 0.718750 0.250000
vt 0.750000 0.687500
vt 0.750000 0.750000
vt 0.718750 0.750000
vt 0.718750 0.687500
vt 0.750000 0.625000
vt 0.718750 0.625000
vt 0.750000 0.562500
vt 0.718750 0.562500
vt 0.750000 0.500000
vt 0.718750 0.500000
vt 0.750000 0.937500
vt 0.734375 1.000000
vt 0.718750 0.937500
vt 0.750000 0.437500
vt 0.718750 0.437500
vt 0.750000 0.875000
vt 0.718750 0.875000
vt 0.750000 0.375000
vt 0.718750 0.375000
vt 0.750000 0.812500
vt 0.718750 0.812500
vt 0.687500 0.375000
vt 0.687500 0.312500
vt 0.687500 0.812500
vt 0.687500 0.750000
vt 0.687500 0.250000
vt 0.687500 0.687500
vt 0.687500 0.625000
vt 0.687500 0.562500
vt 0.687500 0.500000
vt 0.703125 1.000000
vt 0.687500 0.937500
vt 0.687500 0.437500
vt 0.687500 0.875000
vt 0.656250 0.562500
vt 0.656250 0.500000
vt 0.671875 1.000000
vt 0.656250 0.937500
vt 0.656250 0.437500
vt 0.656250 0.875000
vt 0.656250 0.375000
vt 0.656250 0.812500
vt 0.656250 0.312500
vt 0.656250 0.750000
vt 0.656250 0.250000
vt 0.656250 0.687500
vt 0.656250 0.625000
vt 0.625000 0.812500
vt 0.625000 0.750000
vt 0.625000 0.312500
vt 0.625000 0.250000
vt 0.625000 0.687500
vt 0.625000 0.625000
vt 0.625000 0.562500
vt 0.625000 0.500000
vt 0.640625 1.000000
vt 0.625000 0.937500
vt 0.625000 0.437500
vt 0.625000 0.875000
vt 0.625000 0.375000
vt 0.593750 0.562500
vt 0.593750 0.500000
vt 0.609375 1.000000
vt 0.593750 0.937500
vt 0.593750 0.437500
vt 0.593750 0.875000
vt 0.593750 0.375000
vt 0.593750 0.812500
vt 0.593750 0.312500
vt 0.593750 0.750000
vt 0.593750 0.250000
vt 0.593750 0.687500
vt 0.593750 0.625000
vt 0.562500 0.312500
vt 0.562500 0.250000
vt 0.562500 0.750000
vt 0.562500 0.687500
vt 0.562500 0.625000
vt 0.562500 0.562500
vt 0.562500 0.500000
vt 0.578125 1.000000
vt 0.562500 0.937500
vt 0.562500 0.437500
vt 0.562500 0.875000
vt 0.562500 0.375000
vt 0.562500 0.812500
vt 0.531250 0.500000
vt 0.531250 0.437500
vt 0.531250 0.937500
vt 0.531250 0.875000
vt 0.531250 0.375000
vt 0.531250 0.812500
vt 0.531250 0.312500
vt 0.531250 0.750000
vt 0.531250 0.250000
vt 0.531250 0.687500
vt 0.531250 0.625000
vt 0.531250 0.562500
vt 0.546875 1.000000
vt 0.500000 0.687500
vt 0.500000 0.625000
vt 0.500000 0.562500
vt 0.500000 0.500000
vt 0.515625 1.000000
vt 0.500000 0.937500
vt 0.500000 0.437500
vt 0.500000 0.875000
vt 0.500000 0.375000
vt 0.500000 0.812500
vt 0.500000 0.312500
vt 0.500000 0.750000
vt 0.500000 0.250000
vt 0.468750 0.937500
vt 0.468750 0.875000
vt 0.468750 0.437500
vt 0.468750 0.375000
vt 0.468750 0.812500
vt 0.468750 0.312500
vt 0.468750 0.750000
vt 0.468750 0.250000
vt 0.468750 0.687500
vt 0.468750 0.625000
vt 0.468750 0.562500
vt 0.468750 0.500000
vt 0.484375 1.000000
vt 0.437500 0.687500
vt 0.437500 0.625000
vt 0.437500 0.562500
vt 0.437500 0.500000
vt 0.453125 1.000000
vt 0.437500 0.937500
vt 0.437500 0.437500
vt 0.437500 0.875000
vt 0.437500 0.375000
vt 0.437500 0.812500
vt 0.437500 0.312500
vt 0.437500 0.750000
vt 0.437500 0.250000
vt 0.406250 0.437500
vt 0.406250 0.375000
vt 0.406250 0.875000
vt 0.406250 0.812500
vt 0.406250 0.312500
vt 0.406250 0.750000
vt 0.406250 0.250000
vt 0.406250 0.687500
vt 0.406250 0.625000
vt 0.406250 0.562500
vt 0.406250 0.500000
vt 0.421875 1.000000
vt 0.406250 0.937500
vt 0.375000 0.625000
vt 0.375000 0.562500
vt 0.375000 0.500000
vt 0.390625 1.000000
vt 0.375000 0.937500
vt 0.375000 0.437500
vt 0.375000 0.875000
vt 0.375000 0.375000
vt 0.375000 0.812500
vt 0.375000 0.312500
vt 0.375000 0.750000
vt 0.375000 0.250000
vt 0.375000 0.687500
vt 0.343750 0.875000
vt 0.343750 0.812500
vt 0.343750 0.375000
vt 0.343750 0.312500
vt 0.343750 0.750000
vt 0.343750 0.250000
vt 0.343750 0.687500
vt 0.343750 0.625000
vt 0.343750 0.562500
vt 0.343750 0.500000
vt 0.359375 1.000000
vt 0.343750 0.937500
vt 0.343750 0.437500
vt 0.312500 0.625000
vt 0.312500 0.562500
vt 0.312500 0.500000
vt 0.328125 1.000000
vt 0.312500 0.937500
vt 0.312500 0.437500
vt 0.312500 0.875000
vt 0.312500 0.375000
vt 0.312500 0.812500
vt 0.312500 0.312500
vt 0.312500 0.750000
vt 0.312500 0.250000
vt 0.312500 0.687500
vt 0.281250 0.375000
vt 0.281250 0.312500
vt 0.281250 0.812500
vt 0.281250 0.750000
vt 0.281250 0.250000
vt 0.281250 0.687500
vt 0.281250 0.625000
vt 0.281250 0.562500
vt 0.281250 0.500000
vt 0.296875 1.000000
vt 0.281250 0.937500
vt 0.281250 0.437500
vt 0.281250 0.875000
vt 0.250000 0.562500
vt 0.250000 0.500000
vt 0.265625 1.000000
vt 0.250000 0.937500
vt 0.250000 0.437500
vt 0.250000 0.875000
vt 0.250000 0.375000
vt 0.250000 0.812500
vt 0.250000 0.312500
vt 0.250000 0.750000
vt 0.250000 0.250000
vt 0.250000 0.687500
vt 0.250000 0.625000
vt 0.218750 0.312500
vt 0.218750 0.250000
vt 0.218750 0.750000
vt 0.218750 0.687500
vt 0.218750 0.625000
vt 0.218750 0.562500
vt 0.218750 0.500000
vt 0.234375 1.000000
vt 0.218750 0.937500
vt 0.218750 0.437500
vt 0.218750 0.875000
vt 0.218750 0.375000
vt 0.218750 0.812500
vt 0.203125 1.000000
vt 0.187500 0.937500
vt 0.187500 0.500000
vt 0.187500 0.437500
vt 0.187500 0.875000
vt 0.187500 0.375000
vt 0.187500 0.812500
vt 0.187500 0.312500
vt 0.187500 0.750000
vt 0.187500 0.250000
vt 0.187500 0.687500
vt 0.187500 0.625000
vt 0.187500 0.562500
vt 0.156250 0.750000
vt 0.156250 0.687500
vt 0.156250 0.625000
vt 0.156250 0.562500
vt 0.156250 0.500000
vt 0.171875 1.000000
vt 0.156250 0.937500
vt 0.156250 0.437500
vt 0.156250 0.875000
vt 0.156250 0.375000
vt 0.156250 0.812500
vt 0.156250 0.312500
vt 0.156250 0.250000
vt 0.125000 0.500000
vt 0.125000 0.437500
vt 0.125000 0.937500
vt 0.125000 0.875000
vt 0.125000 0.375000
vt 0.125000 0.812500
vt 0.125000 0.312500
vt 0.125000 0.750000
vt 0.125000 0.250000
vt 0.125000 0.687500
vt 0.125000 0.625000
vt 0.125000 0.562500
vt 0.140625 1.000000
vt 0.093750 0.687500
vt 0.093750 0.625000
vt 0.093750 0.562500
vt 0.093750 0.500000
vt 0.109375 1.000000
vt 0.093750 0.937500
vt 0.093750 0.437500
vt 0.093750 0.875000
vt 0.093750 0.375000
vt 0.093750 0.812500
vt 0.093750 0.312500
vt 0.093750 0.750000
vt 0.093750 0.250000
vt 0.062500 0.937500
vt 0.062500 0.875000
vt 0.062500 0.437500
vt 0.062500 0.375000
vt 0.062500 0.812500
vt 0.062500 0.312500
vt 0.062500 0.750000
vt 0.062500 0.250000
vt 0.062500 0.687500
vt 0.062500 0.625000
vt 0.062500 0.562500
vt 1.000000 0.250000
vt 0.968750 0.250000
vt 0.062500 0.500000
vt 0.078125 1.000000
vt 0.031250 0.687500
vt 0.031250 0.625000
vt 0.031250 0.562500
vt 0.031250 0.500000
vt 0.046875 1.000000
vt 0.031250 0.937500
vt 0.031250 0.437500
vt 0.031250 0.875000
vt 0.031250 0.375000
vt 0.031250 0.812500
vt 0.031250 0.312500
vt 0.031250 0.750000
vt 0.031250 0.250000
vt 0.000000 0.437500
vt 0.000000 0.375000
vt 0.000000 0.875000
vt 0.000000 0.812500
vt 0.000000 0.312500
vt 0.000000 0.750000
vt 0.000000 0.250000
vt 0.000000 0.687500
vt 0.000000 0.625000
vt 0.843750 0.250000
vt 0.812500 0.250000
vt 0.000000 0.562500
vt 0.000000 0.500000
vt 0.015625 1.000000
vt 0.000000 0.937500
vt 1.000000 0.562500
vt 1.000000 0.625000
vt 0.968750 0.625000
vt 0.968750 0.562500
vt 1.000000 0.500000
vt 0.968750 0.500000
vt 1.000000 0.937500
vt 0.984375 1.000000
vt 0.968750 0.937500
vt 1.000000 0.437500
vt 0.968750 0.437500
vt 1.000000 0.875000
vt 0.968750 0.875000
vt 1.000000 0.375000
vt 0.968750 0.375000
vt 1.000000 0.812500
vt 0.968750 0.812500
vt 1.000000 0.312500
vt 0.968750 0.312500
vt 1.000000 0.750000
vt 0.968750 0.750000
vt 1.000000 0.687500
vt 0.968750 0.687500
vt 0.937500 0.375000
vt 0.937500 0.312500
vt 0.937500 0.812500
vt 0.937500 0.750000
vt 0.937500 0.250000
vt 0.937500 0.687500
vt 0.937500 0.625000
vt 0.937500 0.562500
vt 0.781250 0.250000
vt 0.937500 0.500000
vt 0.953125 1.000000
vt 0.937500 0.937500
vt 0.937500 0.437500
vt 0.937500 0.875000
vt 0.906250 0.562500
vt 0.906250 0.500000
vt 0.921875 1.000000
vt 0.906250 0.937500
vt 0.906250 0.437500
vt 0.906250 0.875000
vt 0.906250 0.375000
vt 0.906250 0.812500
vt 0.906250 0.312500
vt 0.906250 0.750000
vt 0.906250 0.250000
vt 0.906250 0.687500
vt 0.875000 0.250000
vt 0.906250 0.625000
vt 0.875000 0.812500
vt 0.875000 0.750000
vt 0.875000 0.312500
vt 0.875000 0.687500
vt 0.875000 0.625000
vt 0.875000 0.562500
vt 0.875000 0.500000
vt 0.890625 1.000000
vt 0.875000 0.937500
vt 0.875000 0.437500
vt 0.875000 0.875000
vt 0.875000 0.375000
vt 0.843750 0.562500
vt 0.843750 0.500000
vt 0.859375 1.000000
vt 0.843750 0.937500
vt 0.843750 0.437500
vt 0.843750 0.875000
vt 0.843750 0.375000
vt 0.843750 0.812500
vt 0.843750 0.312500
vt 0.843750 0.750000
vt 0.843750 0.687500
vt 0.843750 0.625000
vt 0.812500 0.312500
vt 0.812500 0.750000
vt 0.812500 0.687500
vt 0.812500 0.625000
vt 0.812500 0.562500
vt 0.812500 0.500000
vt 0.828125 1.000000
vt 0.812500 0.937500
vt 0.812500 0.437500
vt 0.812500 0.875000
vt 0.812500 0.375000
vt 0.812500 0.812500
vt 0.796875 1.000000
vt 0.781250 0.937500
vt 0.781250 0.500000
vt 0.781250 0.437500
vt 0.781250 0.875000
vt 0.781250 0.375000
vt 0.781250 0.812500
vt 0.781250 0.312500
vt 0.781250 0.750000
vt 0.781250 0.687500
vt 0.781250 0.625000
vt 0.781250 0.562500
vt 0.765625 1.000000
s 0
usemtl pawn_material
s off
usemtl pawn_material
s off
f 414/1/1 7/2/1 18/3/1 19/4/1
f 3/5/2 411/6/2 11/7/2 12/8/2
f 412/9/3 3/5/3 12/8/3 13/10/3
f 4/11/4 412/9/4 13/10/4 14/12/4
f 5/13/5 4/11/5 14/12/5 15/14/5
f 409/15/6 1/16/6 8/17/6
f 6/18/7 5/13/7 15/14/7 16/19/7
f 410/20/8 409/15/8 8/17/8 9/21/8
f 413/22/9 6/18/9 16/19/9 17/23/9
f 2/24/10 410/20/10 9/21/10 10/25/10
f 7/2/11 413/22/11 17/23/11 18/3/11
f 411/6/12 2/24/12 10/25/12 11/7/12
f 18/3/13 17/23/13 29/26/13 30/27/13
f 11/7/14 10/25/14 22/28/14 23/29/14
f 19/4/15 18/3/15 30/27/15 31/30/15
f 12/8/16 11/7/16 23/29/16 24/31/16
f 13/10/17 12/8/17 24/31/17 25/32/17
f 14/12/18 13/10/18 25/32/18 26/33/18
f 15/14/19 14/12/19 26/33/19 27/34/19
f 8/17/20 1/35/20 20/36/20
f 16/19/21 15/14/21 27/34/21 28/37/21
f 9/21/22 8/17/22 20/36/22 21/38/22
f 17/23/23 16/19/23 28/37/23 29/26/23
f 10/25/24 9/21/24 21/38/24 22/28/24
f 27/34/25 26/33/25 38/39/25 39/40/25
f 20/36/26 1/41/26 32/42/26
f 28/37/27 27/34/27 39/40/27 40/43/27
f 21/38/28 20/36/28 32/42/28 33/44/28
f 29/26/29 28/37/29 40/43/29 41/45/29
f 22/28/30 21/38/30 33/44/30 34/46/30
f 30/27/31 29/26/31 41/45/31 42/47/31
f 23/29/32 22/28/32 34/46/32 35/48/32
f 31/30/33 30/27/33 42/47/33 43/49/33
f 24/31/34 23/29/34 35/48/34 36/50/34
f 25/32/35 24/31/35 36/50/35 37/51/35
f 26/33/36 25/32/36 37/51/36 38/39/36
f 35/48/37 34/46/37 46/52/37 47/53/37
f 43/49/38 42/47/38 54/54/38 55/55/38
f 36/50/39 35/48/39 47/53/39 48/56/39
f 37/51/40 36/50/40 48/56/40 49/57/40
f 38/39/41 37/51/41 49/57/41 50/58/41
f 39/40/42 38/39/42 50/58/42 51/59/42
f 32/42/43 1/60/43 44/61/43
f 40/43/44 39/40/44 51/59/44 52/62/44
f 33/44/45 32/42/45 44/61/45 45/63/45
f 41/45/46 40/43/46 52/62/46 53/64/46
f 34/46/47 33/44/47 45/63/47 46/52/47
f 42/47/48 41/45/48 53/64/48 54/54/48
f 51/59/49 50/58/49 62/65/49 63/66/49
f 44/61/50 1/67/50 56/68/50
f 52/62/51 51/59/51 63/66/51 64/69/51
f 45/63/52 44/61/52 56/68/52 57/70/52
f 53/64/53 52/62/53 64/69/53 65/71/53
f 46/52/54 45/63/54 57/70/54 58/72/54
f 54/54/55 53/64/55 65/71/55 66/73/55
f 47/53/56 46/52/56 58/72/56 59/74/56
f 55/55/57 54/54/57 66/73/57 67/75/57
f 48/56/58 47/53/58 59/74/58 60/76/58
f 49/57/59 48/56/59 60/76/59 61/77/59
f 50/58/60 49/57/60 61/77/60 62/65/60
f 67/75/61 66/73/61 78/78/61 79/79/61
f 60/76/62 59/74/62 71/80/62 72/81/62
f 61/77/63 60/76/63 72/81/63 73/82/63
f 62/65/64 61/77/64 73/82/64 74/83/64
f 63/66/65 62/65/65 74/83/65 75/84/65
f 56/68/66 1/85/66 68/86/66
f 64/69/67 63/66/67 75/84/67 76/87/67
f 57/70/68 56/68/68 68/86/68 69/88/68
f 65/71/69 64/69/69 76/87/69 77/89/69
f 58/72/70 57/70/70 69/88/70 70/90/70
f 66/73/71 65/71/71 77/89/71 78/78/71
f 59/74/72 58/72/72 70/90/72 71/80/72
f 76/87/73 75/84/73 87/91/73 88/92/73
f 69/88/74 68/86/74 80/93/74 81/94/74
f 77/89/75 76/87/75 88/92/75 89/95/75
f 70/90/76 69/88/76 81/94/76 82/96/76
f 78/78/77 77/89/77 89/95/77 90/97/77
f 71/80/78 70/90/78 82/96/78 83/98/78
f 79/79/79 78/78/79 90/97/79 91/99/79
f 72/81/80 71/80/80 83/98/80 84/100/80
f 73/82/81 72/81/81 84/100/81 85/101/81
f 74/83/82 73/82/82 85/101/82 86/102/82
f 75/84/83 74/83/83 86/102/83 87/91/83
f 68/86/84 1/103/84 80/93/84
f 85/101/85 84/100/85 96/104/85 97/105/85
f 86/102/86 85/101/86 97/105/86 98/106/86
f 87/91/87 86/102/87 98/106/87 99/107/87
f 80/93/88 1/108/88 92/109/88
f 88/92/89 87/91/89 99/107/89 100/110/89
f 81/94/90 80/93/90 92/109/90 93/111/90
f 89/95/91 88/92/91 100/110/91 101/112/91
f 82/96/92 81/94/92 93/111/92 94/113/92
f 90/97/93 89/95/93 101/112/93 102/114/93
f 83/98/94 82/96/94 94/113/94 95/115/94
f 91/99/95 90/97/95 102/114/95 103/116/95
f 84/100/96 83/98/96 95/115/96 96/104/96
f 93/111/97 92/109/97 104/117/97 105/118/97
f 101/112/98 100/110/98 112/119/98 113/120/98
f 94/113/99 93/111/99 105/118/99 106/121/99
f 102/114/100 101/112/100 113/120/100 114/122/100
f 95/115/101 94/113/101 106/121/101 107/123/101
f 103/116/102 102/114/102 114/122/102 115/124/102
f 96/104/103 95/115/103 107/123/103 108/125/103
f 97/105/104 96/104/104 108/125/104 109/126/104
f 98/106/105 97/105/105 109/126/105 110/127/105
f 99/107/106 98/106/106 110/127/106 111/128/106
f 92/109/107 1/129/107 104/117/107
f 100/110/108 99/107/108 111/128/108 112/119/108
f 109/126/109 108/125/109 120/130/109 121/131/109
f 110/127/110 109/126/110 121/131/110 122/132/110
f 111/128/111 110/127/111 122/132/111 123/133/111
f 104/117/112 1/134/112 116/135/112
f 112/119/113 111/128/113 123/133/113 124/136/113
f 105/118/114 104/117/114 116/135/114 117/137/114
f 113/120/115 112/119/115 124/136/115 125/138/115
f 106/121/116 105/118/116 117/137/116 118/139/116
f 114/122/117 113/120/117 125/138/117 126/140/117
f 107/123/118 106/121/118 118/139/118 119/141/118
f 115/124/119 114/122/119 126/140/119 127/142/119
f 108/125/120 107/123/120 119/141/120 120/130/120
f 125/138/121 124/136/121 136/143/121 137/144/121
f 118/139/122 117/137/122 129/145/122 130/146/122
f 126/140/123 125/138/123 137/144/123 138/147/123
f 119/141/124 118/139/124 130/146/124 131/148/124
f 127/142/125 126/140/125 138/147/125 139/149/125
f 120/130/126 119/141/126 131/148/126 132/150/126
f 121/131/127 120/130/127 132/150/127 133/151/127
f 122/132/128 121/131/128 133/151/128 134/152/128
f 123/133/129 122/132/129 134/152/129 135/153/129
f 116/135/130 1/154/130 128/155/130
f 124/136/131 123/133/131 135/153/131 136/143/131
f 117/137/132 116/135/132 128/155/132 129/145/132
f 134/152/133 133/151/133 145/156/133 146/157/133
f 135/153/134 134/152/134 146/157/134 147/158/134
f 128/155/135 1/159/135 140/160/135
f 136/143/136 135/153/136 147/158/136 148/161/136
f 129/145/137 128/155/137 140/160/137 141/162/137
f 137/144/138 136/143/138 148/161/138 149/163/138
f 130/146/139 129/145/139 141/162/139 142/164/139
f 138/147/140 137/144/140 149/163/140 150/165/140
f 131/148/141 130/146/141 142/164/141 143/166/141
f 139/149/142 138/147/142 150/165/142 151/167/142
f 132/150/143 131/148/143 143/166/143 144/168/143
f 133/151/144 132/150/144 144/168/144 145/156/144
f 142/164/145 141/162/145 153/169/145 154/170/145
f 150/165/146 149/163/146 161/171/146 162/172/146
f 143/166/147 142/164/147 154/170/147 155/173/147
f 151/167/148 150/165/148 162/172/148 163/174/148
f 144/168/149 143/166/149 155/173/149 156/175/149
f 145/156/150 144/168/150 156/175/150 157/176/150
f 146/157/151 145/156/151 157/176/151 158/177/151
f 147/158/152 146/157/152 158/177/152 159/178/152
f 140/160/153 1/179/153 152/180/153
f 148/161/154 147/158/154 159/178/154 160/181/154
f 141/162/155 140/160/155 152/180/155 153/169/155
f 149/163/156 148/161/156 160/181/156 161/171/156
f 158/177/157 157/176/157 169/182/157 170/183/157
f 159/178/158 158/177/158 170/183/158 171/184/158
f 152/180/159 1/185/159 164/186/159
f 160/181/160 159/178/160 171/184/160 172/187/160
f 153/169/161 152/180/161 164/186/161 165/188/161
f 161/171/162 160/181/162 172/187/162 173/189/162
f 154/170/163 153/169/163 165/188/163 166/190/163
f 162/172/164 161/171/164 173/189/164 174/191/164
f 155/173/165 154/170/165 166/190/165 167/192/165
f 163/174/166 162/172/166 174/191/166 175/193/166
f 156/175/167 155/173/167 167/192/167 168/194/167
f 157/176/168 156/175/168 168/194/168 169/182/168
f 174/191/169 173/189/169 185/195/169 186/196/169
f 167/192/170 166/190/170 178/197/170 179/198/170
f 175/193/171 174/191/171 186/196/171 187/199/171
f 168/194/172 167/192/172 179/198/172 180/200/172
f 169/182/173 168/194/173 180/200/173 181/201/173
f 170/183/174 169/182/174 181/201/174 182/202/174
f 171/184/175 170/183/175 182/202/175 183/203/175
f 164/186/176 1/204/176 176/205/176
f 172/187/177 171/184/177 183/203/177 184/206/177
f 165/188/178 164/186/178 176/205/178 177/207/178
f 173/189/179 172/187/179 184/206/179 185/195/179
f 166/190/180 165/188/180 177/207/180 178/197/180
f 183/203/181 182/202/181 194/208/181 195/209/181
f 176/205/182 1/210/182 188/211/182
f 184/206/183 183/203/183 195/209/183 196/212/183
f 177/207/184 176/205/184 188/211/184 189/213/184
f 185/195/185 184/206/185 196/212/185 197/214/185
f 178/197/186 177/207/186 189/213/186 190/215/186
f 186/196/187 185/195/187 197/214/187 198/216/187
f 179/198/188 178/197/188 190/215/188 191/217/188
f 187/199/189 186/196/189 198/216/189 199/218/189
f 180/200/190 179/198/190 191/217/190 192/219/190
f 181/201/191 180/200/191 192/219/191 193/220/191
f 182/202/192 181/201/192 193/220/192 194/208/192
f 199/218/193 198/216/193 210/221/193 211/222/193
f 192/219/194 191/217/194 203/223/194 204/224/194
f 193/220/195 192/219/195 204/224/195 205/225/195
f 194/208/196 193/220/196 205/225/196 206/226/196
f 195/209/197 194/208/197 206/226/197 207/227/197
f 188/211/198 1/228/198 200/229/198
f 196/212/199 195/209/199 207/227/199 208/230/199
f 189/213/200 188/211/200 200/229/200 201/231/200
f 197/214/201 196/212/201 208/230/201 209/232/201
f 190/215/202 189/213/202 201/231/202 202/233/202
f 198/216/203 197/214/203 209/232/203 210/221/203
f 191/217/204 190/215/204 202/233/204 203/223/204
f 200/229/205 1/234/205 212/235/205
f 208/230/206 207/227/206 219/236/206 220/237/206
f 201/231/207 200/229/207 212/235/207 213/238/207
f 209/232/208 208/230/208 220/237/208 221/239/208
f 202/233/209 201/231/209 213/238/209 214/240/209
f 210/221/210 209/232/210 221/239/210 222/241/210
f 203/223/211 202/233/211 214/240/211 215/242/211
f 211/222/212 210/221/212 222/241/212 223/243/212
f 204/224/213 203/223/213 215/242/213 216/244/213
f 205/225/214 204/224/214 216/244/214 217/245/214
f 206/226/215 205/225/215 217/245/215 218/246/215
f 207/227/216 206/226/216 218/246/216 219/236/216
f 216/244/217 215/242/217 227/247/217 228/248/217
f 217/245/218 216/244/218 228/248/218 229/249/218
f 218/246/219 217/245/219 229/249/219 230/250/219
f 219/236/220 218/246/220 230/250/220 231/251/220
f 212/235/221 1/252/221 224/253/221
f 220/237/222 219/236/222 231/251/222 232/254/222
f 213/238/223 212/235/223 224/253/223 225/255/223
f 221/239/224 220/237/224 232/254/224 233/256/224
f 214/240/225 213/238/225 225/255/225 226/257/225
f 222/241/226 221/239/226 233/256/226 234/258/226
f 215/242/227 214/240/227 226/257/227 227/247/227
f 223/243/228 222/241/228 234/258/228 235/259/228
f 232/254/229 231/251/229 243/260/229 244/261/229
f 225/255/230 224/253/230 236/262/230 237/263/230
f 233/256/231 232/254/231 244/261/231 245/264/231
f 226/257/232 225/255/232 237/263/232 238/265/232
f 234/258/233 233/256/233 245/264/233 246/266/233
f 227/247/234 226/257/234 238/265/234 239/267/234
f 235/259/235 234/258/235 246/266/235 247/268/235
f 228/248/236 227/247/236 239/267/236 240/269/236
f 229/249/237 228/248/237 240/269/237 241/270/237
f 230/250/238 229/249/238 241/270/238 242/271/238
f 231/251/239 230/250/239 242/271/239 243/260/239
f 224/253/240 1/272/240 236/262/240
f 241/270/241 240/269/241 252/273/241 253/274/241
f 242/271/242 241/270/242 253/274/242 254/275/242
f 243/260/243 242/271/243 254/275/243 255/276/243
f 236/262/244 1/277/244 248/278/244
f 244/261/245 243/260/245 255/276/245 256/279/245
f 237/263/246 236/262/246 248/278/246 249/280/246
f 245/264/247 244/261/247 256/279/247 257/281/247
f 238/265/248 237/263/248 249/280/248 250/282/248
f 246/266/249 245/264/249 257/281/249 258/283/249
f 239/267/250 238/265/250 250/282/250 251/284/250
f 247/268/251 246/266/251 258/283/251 259/285/251
f 240/269/252 239/267/252 251/284/252 252/273/252
f 249/280/253 248/278/253 260/286/253 261/287/253
f 257/281/254 256/279/254 268/288/254 269/289/254
f 250/282/255 249/280/255 261/287/255 262/290/255
f 258/283/256 257/281/256 269/289/256 270/291/256
f 251/284/257 250/282/257 262/290/257 263/292/257
f 259/285/258 258/283/258 270/291/258 271/293/258
f 252/273/259 251/284/259 263/292/259 264/294/259
f 253/274/260 252/273/260 264/294/260 265/295/260
f 259/285/261 271/293/261 318/293/261 331/285/261
f 254/275/262 253/274/262 265/295/262 266/296/262
f 300/297/263 315/298/263 303/298/263 316/297/263
f 255/276/264 254/275/264 266/296/264 267/299/264
f 248/278/265 1/300/265 260/286/265
f 256/279/266 255/276/266 267/299/266 268/288/266
f 265/295/267 264/294/267 278/301/267 279/302/267
f 103/116/268 115/124/268 391/124/268 392/116/268
f 266/296/269 265/295/269 279/302/269 280/303/269
f 67/75/270 79/79/270 406/79/270 407/75/270
f 267/299/271 266/296/271 280/303/271 281/304/271
f 260/286/272 1/305/272 274/306/272
f 268/288/273 267/299/273 281/304/273 282/307/273
f 261/287/274 260/286/274 274/306/274 275/308/274
f 269/289/275 268/288/275 282/307/275 283/309/275
f 262/290/276 261/287/276 275/308/276 276/310/276
f 270/291/277 269/289/277 283/309/277 284/311/277
f 263/292/278 262/290/278 276/310/278 277/312/278
f 271/293/279 270/291/279 284/311/279 285/313/279
f 264/294/280 263/292/280 277/312/280 278/301/280
f 414/1/281 19/4/281 417/4/281 272/1/281
f 283/309/282 282/307/282 297/314/282 298/315/282
f 276/310/283 275/308/283 290/316/283 291/317/283
f 284/311/284 283/309/284 298/315/284 299/318/284
f 277/312/285 276/310/285 291/317/285 292/319/285
f 285/313/286 284/311/286 299/318/286 300/320/286
f 278/301/287 277/312/287 292/319/287 293/321/287
f 139/149/288 151/167/288 376/167/288 377/149/288
f 279/302/289 278/301/289 293/321/289 294/322/289
f 375/323/290 390/324/290 286/324/290 287/323/290
f 280/303/291 279/302/291 294/322/291 295/325/291
f 235/259/292 247/268/292 332/268/292 333/259/292
f 281/304/293 280/303/293 295/325/293 296/326/293
f 274/306/294 1/327/294 289/328/294
f 282/307/295 281/304/295 296/326/295 297/314/295
f 275/308/296 274/306/296 289/328/296 290/316/296
f 271/293/297 285/313/297 317/313/297 318/293/297
f 295/329/298 294/330/298 309/331/298 310/332/298
f 43/49/299 55/55/299 408/55/299 415/49/299
f 296/333/300 295/329/300 310/332/300 311/334/300
f 289/335/301 1/336/301 304/337/301
f 297/338/302 296/333/302 311/334/302 312/339/302
f 290/340/303 289/335/303 304/337/303 305/341/303
f 298/342/304 297/338/304 312/339/304 313/343/304
f 291/344/305 290/340/305 305/341/305 306/345/305
f 299/346/306 298/342/306 313/343/306 314/347/306
f 292/348/307 291/344/307 306/345/307 307/349/307
f 300/297/308 299/346/308 314/347/308 315/298/308
f 293/350/309 292/348/309 307/349/309 308/351/309
f 79/79/310 91/99/310 393/99/310 406/79/310
f 294/330/311 293/350/311 308/351/311 309/331/311
f 314/347/312 313/343/312 328/352/312 329/353/312
f 307/349/313 306/345/313 321/354/313 322/355/313
f 315/298/314 314/347/314 329/353/314 330/356/314
f 308/351/315 307/349/315 322/355/315 323/357/315
f 199/218/316 211/222/316 347/222/316 348/218/316
f 309/331/317 308/351/317 323/357/317 324/358/317
f 175/193/318 187/199/318 361/199/318 362/193/318
f 310/332/319 309/331/319 324/358/319 325/359/319
f 390/324/320 405/360/320 273/360/320 286/324/320
f 311/334/321 310/332/321 325/359/321 326/361/321
f 304/337/322 1/362/322 319/363/322
f 312/339/323 311/334/323 326/361/323 327/364/323
f 305/341/324 304/337/324 319/363/324 320/365/324
f 313/343/325 312/339/325 327/364/325 328/352/325
f 306/345/326 305/341/326 320/365/326 321/354/326
f 405/360/327 414/1/327 272/1/327 273/360/327
f 326/361/328 325/359/328 340/366/328 341/367/328
f 319/363/329 1/368/329 334/369/329
f 327/364/330 326/361/330 341/367/330 342/370/330
f 320/365/331 319/363/331 334/369/331 335/371/331
f 328/352/332 327/364/332 342/370/332 343/372/332
f 321/354/333 320/365/333 335/371/333 336/373/333
f 329/353/334 328/352/334 343/372/334 344/374/334
f 322/355/335 321/354/335 336/373/335 337/375/335
f 330/356/336 329/353/336 344/374/336 345/376/336
f 323/357/337 322/355/337 337/375/337 338/377/337
f 345/376/338 360/378/338 288/378/338 301/376/338
f 324/358/339 323/357/339 338/377/339 339/379/339
f 115/124/340 127/142/340 378/142/340 391/124/340
f 325/359/341 324/358/341 339/379/341 340/366/341
f 337/375/342 336/373/342 351/380/342 352/381/342
f 345/376/343 344/374/343 359/382/343 360/378/343
f 338/377/344 337/375/344 352/381/344 353/383/344
f 211/222/345 223/243/345 346/243/345 347/222/345
f 339/379/346 338/377/346 353/383/346 354/384/346
f 19/4/347 31/30/347 416/30/347 417/4/347
f 340/366/348 339/379/348 354/384/348 355/385/348
f 55/55/349 67/75/349 407/75/349 408/55/349
f 341/367/350 340/366/350 355/385/350 356/386/350
f 334/369/351 1/387/351 349/388/351
f 342/370/352 341/367/352 356/386/352 357/389/352
f 335/371/353 334/369/353 349/388/353 350/390/353
f 343/372/354 342/370/354 357/389/354 358/391/354
f 336/373/355 335/371/355 350/390/355 351/380/355
f 344/374/356 343/372/356 358/391/356 359/382/356
f 356/386/357 355/385/357 370/392/357 371/393/357
f 349/388/358 1/394/358 364/395/358
f 357/389/359 356/386/359 371/393/359 372/396/359
f 350/390/360 349/388/360 364/395/360 365/397/360
f 358/391/361 357/389/361 372/396/361 373/398/361
f 351/380/362 350/390/362 365/397/362 366/399/362
f 359/382/363 358/391/363 373/398/363 374/400/363
f 352/381/364 351/380/364 366/399/364 367/401/364
f 360/378/365 359/382/365 374/400/365 375/323/365
f 353/383/366 352/381/366 367/401/366 368/402/366
f 315/298/367 330/356/367 302/356/367 303/298/367
f 354/384/368 353/383/368 368/402/368 369/403/368
f 247/268/369 259/285/369 331/285/369 332/268/369
f 355/385/370 354/384/370 369/403/370 370/392/370
f 151/167/371 163/174/371 363/174/371 376/167/371
f 375/323/372 374/400/372 389/404/372 390/324/372
f 368/402/373 367/401/373 382/405/373 383/406/373
f 360/378/374 375/323/374 287/323/374 288/378/374
f 369/403/375 368/402/375 383/406/375 384/407/375
f 187/199/376 199/218/376 348/218/376 361/199/376
f 370/392/377 369/403/377 384/407/377 385/408/377
f 285/313/378 300/320/378 316/320/378 317/313/378
f 371/393/379 370/392/379 385/408/379 386/409/379
f 364/395/380 1/410/380 379/411/380
f 372/396/381 371/393/381 386/409/381 387/412/381
f 365/397/382 364/395/382 379/411/382 380/413/382
f 373/398/383 372/396/383 387/412/383 388/414/383
f 366/399/384 365/397/384 380/413/384 381/415/384
f 374/400/385 373/398/385 388/414/385 389/404/385
f 367/401/386 366/399/386 381/415/386 382/405/386
f 379/411/387 1/416/387 394/417/387
f 387/412/388 386/409/388 401/418/388 402/419/388
f 380/413/389 379/411/389 394/417/389 395/420/389
f 388/414/390 387/412/390 402/419/390 403/421/390
f 381/415/391 380/413/391 395/420/391 396/422/391
f 389/404/392 388/414/392 403/421/392 404/423/392
f 382/405/393 381/415/393 396/422/393 397/424/393
f 390/324/394 389/404/394 404/423/394 405/360/394
f 383/406/395 382/405/395 397/424/395 398/425/395
f 91/99/396 103/116/396 392/116/396 393/99/396
f 384/407/397 383/406/397 398/425/397 399/426/397
f 223/243/398 235/259/398 333/259/398 346/243/398
f 385/408/399 384/407/399 399/426/399 400/427/399
f 31/30/400 43/49/400 415/49/400 416/30/400
f 386/409/401 385/408/401 400/427/401 401/418/401
f 398/425/402 397/424/402 411/6/402 3/5/402
f 127/142/403 139/149/403 377/149/403 378/142/403
f 399/426/404 398/425/404 3/5/404 412/9/404
f 330/356/405 345/376/405 301/376/405 302/356/405
f 400/427/406 399/426/406 412/9/406 4/11/406
f 163/174/407 175/193/407 362/193/407 363/174/407
f 401/418/408 400/427/408 4/11/408 5/13/408
f 394/417/409 1/428/409 409/15/409
f 402/419/410 401/418/410 5/13/410 6/18/410
f 395/420/411 394/417/411 409/15/411 410/20/411
f 403/421/412 402/419/412 6/18/412 413/22/412
f 396/422/413 395/420/413 410/20/413 2/24/413
f 404/423/414 403/421/414 413/22/414 7/2/414
f 397/424/415 396/422/415 2/24/415 411/6/415
f 405/360/416 404/423/416 7/2/416 414/1/416
f 287/323/417 286/324/417 420/324/417 421/323/417
f 378/142/418 377/149/418 439/149/418 440/142/418
f 333/259/419 332/268/419 430/268/419 431/259/419
f 288/378/420 287/323/420 421/323/420 422/378/420
f 415/49/421 408/55/421 446/55/421 447/49/421
f 272/1/422 417/4/422 449/4/422 418/1/422
f 416/30/423 415/49/423 447/49/423 448/30/423
f 286/324/424 273/360/424 419/360/424 420/324/424
f 347/222/425 346/243/425 432/243/425 433/222/425
f 301/376/426 288/378/426 422/378/426 423/376/426
f 417/4/427 416/30/427 448/30/427 449/4/427
f 302/356/428 301/376/428 423/376/428 424/356/428
f 348/218/429 347/222/429 433/222/429 434/218/429
f 316/297/430 303/298/430 425/298/430 426/297/430
f 331/285/431 318/293/431 428/293/431 429/285/431
f 393/99/432 392/116/432 442/116/432 443/99/432
f 332/268/433 331/285/433 429/285/433 430/268/433
f 303/298/434 302/356/434 424/356/434 425/298/434
f 346/243/435 333/259/435 431/259/435 432/243/435
f 361/199/436 348/218/436 434/218/436 435/199/436
f 362/193/437 361/199/437 435/199/437 436/193/437
f 407/75/438 406/79/438 444/79/438 445/75/438
f 317/313/439 316/320/439 426/320/439 427/313/439
f 376/167/440 363/174/440 437/174/440 438/167/440
f 391/124/441 378/142/441 440/142/441 441/124/441
f 408/55/442 407/75/442 445/75/442 446/55/442
f 363/174/443 362/193/443 436/193/443 437/174/443
f 392/116/444 391/124/444 441/124/444 442/116/444
f 273/360/445 272/1/445 418/1/445 419/360/445
f 318/293/446 317/313/446 427/313/446 428/293/446
f 406/79/447 393/99/447 443/99/447 444/79/447
f 377/149/448 376/167/448 438/167/448 439/149/448
f 425/298/449 424/356/449 456/356/449 457/298/449
f 447/49/450 446/55/450 478/55/450 479/49/450
f 427/313/451 426/320/451 458/320/451 459/313/451
f 418/1/452 449/4/452 481/4/452 450/1/452
f 448/30/453 447/49/453 479/49/453 480/30/453
f 435/199/454 434/218/454 466/218/454 467/199/454
f 420/324/455 419/360/455 451/360/455 452/324/455
f 449/4/456 448/30/456 480/30/456 481/4/456
f 436/193/457 435/199/457 467/199/457 468/193/457
f 423/376/458 422/378/458 454/378/458 455/376/458
f 443/99/459 442/116/459 474/116/459 475/99/459
f 438/167/460 437/174/460 469/174/460 470/167/460
f 424/356/461 423/376/461 455/376/461 456/356/461
f 445/75/462 444/79/462 476/79/462 477/75/462
f 431/259/463 430/268/463 462/268/463 463/259/463
f 426/297/464 425/298/464 457/298/464 458/297/464
f 446/55/465 445/75/465 477/75/465 478/55/465
f 433/222/466 432/243/466 464/243/466 465/222/466
f 419/360/467 418/1/467 450/1/467 451/360/467
f 434/218/468 433/222/468 465/222/468 466/218/468
f 421/323/469 420/324/469 452/324/469 453/323/469
f 441/124/470 440/142/470 472/142/470 473/124/470
f 422/378/471 421/323/471 453/323/471 454/378/471
f 442/116/472 441/124/472 473/124/472 474/116/472
f 429/285/473 428/293/473 460/293/473 461/285/473
f 444/79/474 443/99/474 475/99/474 476/79/474
f 430/268/475 429/285/475 461/285/475 462/268/475
f 440/142/476 439/149/476 471/149/476 472/142/476
f 432/243/477 431/259/477 463/259/477 464/243/477
f 437/174/478 436/193/478 468/193/478 469/174/478
f 428/293/479 427/313/479 459/313/479 460/293/479
f 439/149/480 438/167/480 470/167/480 471/149/480
f 457/298/434 456/356/434 488/356/434 489/298/434
f 479/49/421 478/55/421 510/55/421 511/49/421
f 459/313/439 458/320/439 490/320/439 491/313/439
f 450/1/422 481/4/422 513/4/422 482/1/422
f 480/30/423 479/49/423 511/49/423 512/30/423
f 467/199/436 466/218/436 498/218/436 499/199/436
f 452/324/424 451/360/424 483/360/424 484/324/424
f 481/4/427 480/30/427 512/30/427 513/4/427
f 468/193/437 467/199/437 499/199/437 500/193/437
f 455/376/426 454/378/426 486/378/426 487/376/426
f 475/99/432 474/116/432 506/116/432 507/99/432
f 470/167/440 469/174/440 501/174/440 502/167/440
f 456/356/428 455/376/428 487/376/428 488/356/428
f 477/75/438 476/79/438 508/79/438 509/75/438
f 463/259/419 462/268/419 494/268/419 495/259/419
f 458/297/430 457/298/430 489/298/430 490/297/430
f 478/55/442 477/75/442 509/75/442 510/55/442
f 465/222/425 464/243/425 496/243/425 497/222/425
f 451/360/445 450/1/445 482/1/445 483/360/445
f 466/218/429 465/222/429 497/222/429 498/218/429
f 453/323/417 452/324/417 484/324/417 485/323/417
f 473/124/441 472/142/441 504/142/441 505/124/441
f 454/378/420 453/323/420 485/323/420 486/378/420
f 474/116/444 473/124/444 505/124/444 506/116/444
f 461/285/431 460/293/431 492/293/431 493/285/431
f 476/79/447 475/99/447 507/99/447 508/79/447
f 462/268/433 461/285/433 493/285/433 494/268/433
f 472/142/418 471/149/418 503/149/418 504/142/418
f 464/243/435 463/259/435 495/259/435 496/243/435
f 469/174/443 468/193/443 500/193/443 501/174/443
f 460/293/446 459/313/446 491/313/446 492/293/446
f 471/149/448 470/167/448 502/167/448 503/149/448
f 500/193/481 499/199/481 531/199/481 532/193/481
f 487/376/482 486/378/482 518/378/482 519/376/482
f 507/99/483 506/116/483 538/116/483 539/99/483
f 502/167/484 501/174/484 533/174/484 534/167/484
f 488/356/485 487/376/485 519/376/485 520/356/485
f 509/75/486 508/79/486 540/79/486 541/75/486
f 495/259/487 494/268/487 526/268/487 527/259/487
f 490/297/488 489/298/488 521/298/488 522/297/488
f 510/55/489 509/75/489 541/75/489 542/55/489
f 497/222/490 496/243/490 528/243/490 529/222/490
f 483/360/491 482/1/491 514/1/491 515/360/491
f 498/218/492 497/222/492 529/222/492 530/218/492
f 485/323/493 484/324/493 516/324/493 517/323/493
f 505/124/494 504/142/494 536/142/494 537/124/494
f 486/378/495 485/323/495 517/323/495 518/378/495
f 506/116/496 505/124/496 537/124/496 538/116/496
f 493/285/497 492/293/497 524/293/497 525/285/497
f 508/79/498 507/99/498 539/99/498 540/79/498
f 494/268/499 493/285/499 525/285/499 526/268/499
f 504/142/500 503/149/500 535/149/500 536/142/500
f 496/243/501 495/259/501 527/259/501 528/243/501
f 501/174/502 500/193/502 532/193/502 533/174/502
f 492/293/503 491/313/503 523/313/503 524/293/503
f 503/149/504 502/167/504 534/167/504 535/149/504
f 489/298/505 488/356/505 520/356/505 521/298/505
f 511/49/506 510/55/506 542/55/506 543/49/506
f 491/313/507 490/320/507 522/320/507 523/313/507
f 482/1/508 513/4/508 545/4/508 514/1/508
f 512/30/509 511/49/509 543/49/509 544/30/509
f 499/199/510 498/218/510 530/218/510 531/199/510
f 484/324/511 483/360/511 515/360/511 516/324/511
f 513/4/512 512/30/512 544/30/512 545/4/512
f 527/259/419 526/268/419 558/268/419 559/259/419
f 522/297/430 521/298/430 553/298/430 554/297/430
f 542/55/442 541/75/442 573/75/442 574/55/442
f 529/222/425 528/243/425 560/243/425 561/222/425
f 515/360/445 514/1/445 546/1/445 547/360/445
f 530/218/429 529/222/429 561/222/429 562/218/429
f 517/323/417 516/324/417 548/324/417 549/323/417
f 537/124/441 536/142/441 568/142/441 569/124/441
f 518/378/420 517/323/420 549/323/420 550/378/420
f 538/116/444 537/124/444 569/124/444 570/116/444
f 525/285/431 524/293/431 556/293/431 557/285/431
f 540/79/447 539/99/447 571/99/447 572/79/447
f 526/268/433 525/285/433 557/285/433 558/268/433
f 536/142/418 535/149/418 567/149/418 568/142/418
f 528/243/435 527/259/435 559/259/435 560/243/435
f 533/174/443 532/193/443 564/193/443 565/174/443
f 524/293/446 523/313/446 555/313/446 556/293/446
f 535/149/448 534/167/448 566/167/448 567/149/448
f 521/298/434 520/356/434 552/356/434 553/298/434
f 543/49/421 542/55/421 574/55/421 575/49/421
f 523/313/439 522/320/439 554/320/439 555/313/439
f 514/1/422 545/4/422 577/4/422 546/1/422
f 544/30/423 543/49/423 575/49/423 576/30/423
f 531/199/436 530/218/436 562/218/436 563/199/436
f 516/324/424 515/360/424 547/360/424 548/324/424
f 545/4/427 544/30/427 576/30/427 577/4/427
f 532/193/437 531/199/437 563/199/437 564/193/437
f 519/376/426 518/378/426 550/378/426 551/376/426
f 539/99/432 538/116/432 570/116/432 571/99/432
f 534/167/440 533/174/440 565/174/440 566/167/440
f 520/356/428 519/376/428 551/376/428 552/356/428
f 541/75/438 540/79/438 572/79/438 573/75/438
f 552/356/513 551/376/513 578/356/513
f 573/75/514 572/79/514 578/75/514
f 559/259/515 558/268/515 578/259/515
f 554/297/516 553/298/516 578/297/516
f 574/55/517 573/75/517 578/55/517
f 561/222/518 560/243/518 578/222/518
f 547/360/519 546/1/519 578/360/519
f 562/218/520 561/222/520 578/218/520
f 549/323/521 548/324/521 578/323/521
f 569/124/522 568/142/522 578/124/522
f 550/378/523 549/323/523 578/378/523
f 570/116/524 569/124/524 578/116/524
f 557/285/525 556/293/525 578/285/525
f 572/79/526 571/99/526 578/79/526
f 558/268/527 557/285/527 578/268/527
f 568/142/528 567/149/528 578/142/528
f 560/243/529 559/259/529 578/243/529
f 565/174/530 564/193/530 578/174/530
f 556/293/531 555/313/531 578/293/531
f 567/149/532 566/167/532 578/149/532
f 553/298/533 552/356/533 578/298/533
f 575/49/534 574/55/534 578/49/534
f 555/313/535 554/320/535 578/313/535
f 546/1/536 577/4/536 578/1/536
f 576/30/537 575/49/537 578/30/537
f 563/199/538 562/218/538 578/199/538
f 548/324/539 547/360/539 578/324/539
f 577/4/540 576/30/540 578/4/540
f 564/193/541 563/199/541 578/193/541
f 551/376/542 550/378/542 578/376/542
f 571/99/543 570/116/543 578/99/543
f 566/167/544 565/174/544 578/167/544
